{"asset":{"generator":"3D Builder","version":"2.0"},"scene":0,"scenes":[{"nodes":[0]}],"nodes":[{"mesh":0,"matrix":[0.00084954773774370551,0,0,0,0,-1.0127398225590056E-10,-0.00084954762132838368,0,0,0.00084954762132838368,-1.0127398225590056E-10,0,0.00015843112487345934,45.498184204101563,2.548516022216063E-5,1]}],"meshes":[{"primitives":[{"attributes":{"POSITION":0,"COLOR_0":1},"mode":4,"indices":2}]}],"accessors":[{"bufferView":0,"byteOffset":0,"count":4662,"componentType":5126,"type":"VEC3","min":[-597.47906494140625,-203.63276672363281,-1.3487558509286957E-12],"max":[596.93133544921875,203.85848999023437,2224.712890625]},{"bufferView":1,"byteOffset":0,"count":4662,"componentType":5121,"type":"VEC4","normalized":true},{"bufferView":2,"byteOffset":0,"count":27996,"componentType":5125,"type":"SCALAR"}],"bufferViews":[{"buffer":0,"byteOffset":0,"byteLength":55944,"byteStride":12,"target":34962},{"buffer":0,"byteOffset":55944,"byteLength":18648,"byteStride":4,"target":34962},{"buffer":0,"byteOffset":74592,"byteLength":111984,"target":34963}],"buffers":[{"byteLength":186576,"uri":"halfron.bin"}]}